<?xml version="1.0" encoding="utf-8"?>
<!-- Generator: Adobe Illustrator 24.3.0, SVG Export Plug-In . SVG Version: 6.00 Build 0)  -->
<svg version="1.1" id="Layer_1" xmlns="http://www.w3.org/2000/svg" xmlns:xlink="http://www.w3.org/1999/xlink" x="0px" y="0px"
	 viewBox="0 0 98.1 47.4" style="enable-background:new 0 0 98.1 47.4;" xml:space="preserve">
<style type="text/css">
	.st0{fill:#020400;}
</style>
<g id="Layer_2_1_">
</g>
<g id="Layer_2_copy_2">
	<g>
		<path class="st0" d="M0.3,22.8c-0.5,0.6-0.3,1.5,0.3,2C2.2,26,20.8,40.1,21.1,40.3c7.5,5.6,14.3,7.8,20.6,6.8
			C48.6,46,55,40.9,61.3,31.8c5.5-7.9,10.9-12.3,16.7-13.3c5.3-0.9,11.1,1,17.8,5.9c0.6,0.5,1.5,0.3,2-0.3s0.3-1.5-0.3-2
			C96,20.9,77.3,6.8,77,6.6c-7.3-5.3-13.8-7.4-19.9-6.4C50.5,1.3,44.4,6,38.5,14.7c-5.9,8.5-11.6,13.1-17.7,14.1
			c-5.5,0.9-11.5-1.1-18.4-6.2C1.7,22,0.8,22.2,0.3,22.8 M41.2,44.2c-2.7,0.4-5.5,0.2-8.5-0.8c1.3,0.1,2.6,0,3.9-0.2
			c6.9-1.1,13.3-6.1,19.6-15.3c5.5-7.9,10.9-12.3,16.7-13.3c2.7-0.4,5.5-0.2,8.5,0.8c-1.3-0.1-2.6,0-3.8,0.2
			C71,16.7,64.9,21.4,59,30.1C53.1,38.6,47.3,43.2,41.2,44.2 M36.1,40.4c-2.7,0.4-5.5,0.2-8.5-0.8c1.3,0.1,2.6,0,3.9-0.2
			c6.9-1.1,13.3-6.2,19.6-15.3c5.5-7.9,10.9-12.3,16.7-13.3c2.7-0.5,5.5-0.2,8.5,0.8c-1.3,0-2.6,0-3.8,0.2
			c-6.6,1.1-12.7,5.8-18.6,14.5C48,34.7,42.2,39.4,36.1,40.4 M31,36.5c-2.7,0.5-5.5,0.2-8.5-0.8c1.3,0.1,2.6,0,3.9-0.2
			c6.9-1.1,13.3-6.2,19.6-15.3c5.5-7.9,10.9-12.3,16.7-13.3c2.7-0.5,5.5-0.2,8.5,0.8c-1.3,0-2.6,0-3.8,0.2
			C60.8,9,54.7,13.7,48.8,22.4C42.9,30.9,37.1,35.5,31,36.5 M25.9,32.6c-2.7,0.5-5.5,0.2-8.5-0.8c1.3,0,2.6,0,3.9-0.2
			c6.9-1.1,13.3-6.2,19.6-15.3C46.4,8.4,51.8,4,57.6,3c2.7-0.5,5.5-0.2,8.5,0.8c-1.3,0-2.6,0-3.8,0.2c-6.6,1.1-12.7,5.8-18.6,14.5
			C37.7,27,31.9,31.6,25.9,32.6"/>
	</g>
</g>
</svg>
