<?xml version="1.0" encoding="utf-8"?>
<!-- Generator: Adobe Illustrator 24.3.0, SVG Export Plug-In . SVG Version: 6.00 Build 0)  -->
<svg version="1.1" id="Layer_1" xmlns="http://www.w3.org/2000/svg" xmlns:xlink="http://www.w3.org/1999/xlink" x="0px" y="0px"
	 viewBox="0 0 196.9 133.5" style="enable-background:new 0 0 196.9 133.5;" xml:space="preserve">
<style type="text/css">
	.st0{fill:#020400;}
	.st1{fill:#818284;}
</style>
<g id="Layer_2_1_">
</g>
<g id="Layer_2_copy_2">
	<g>
		<path class="st0" d="M46.8,22.8c-0.5,0.6-0.3,1.5,0.3,2c1.6,1.2,20.2,15.3,20.5,15.5c7.5,5.6,14.3,7.8,20.6,6.8
			c6.9-1.1,13.3-6.2,19.6-15.3c5.5-7.9,10.9-12.3,16.7-13.3c5.3-0.9,11.1,1,17.8,5.9c0.6,0.5,1.5,0.3,2-0.3s0.3-1.5-0.3-2
			c-1.5-1.2-20.2-15.3-20.5-15.5c-7.3-5.3-13.8-7.4-19.9-6.4C97,1.3,90.9,6,85,14.7c-5.9,8.5-11.6,13.1-17.7,14.1
			c-5.5,0.9-11.5-1.1-18.4-6.2C48.2,22,47.3,22.2,46.8,22.8 M87.7,44.2c-2.7,0.4-5.5,0.2-8.5-0.8c1.3,0.1,2.6,0,3.9-0.2
			c6.9-1.1,13.3-6.1,19.6-15.3c5.5-7.9,10.9-12.3,16.7-13.3c2.7-0.4,5.5-0.2,8.5,0.8c-1.3-0.1-2.6,0-3.8,0.2
			c-6.6,1.1-12.7,5.8-18.6,14.5C99.6,38.6,93.8,43.2,87.7,44.2 M82.6,40.4c-2.7,0.4-5.5,0.2-8.5-0.8c1.3,0.1,2.6,0,3.9-0.2
			c6.9-1.1,13.3-6.2,19.6-15.3c5.5-7.9,10.9-12.3,16.7-13.3c2.7-0.5,5.5-0.2,8.5,0.8c-1.3,0-2.6,0-3.8,0.2
			c-6.6,1.1-12.7,5.8-18.6,14.5C94.5,34.7,88.7,39.4,82.6,40.4 M77.5,36.5C74.8,37,72,36.7,69,35.7c1.3,0.1,2.6,0,3.9-0.2
			c6.9-1.1,13.3-6.2,19.6-15.3c5.5-7.9,10.9-12.3,16.7-13.3c2.7-0.5,5.5-0.2,8.5,0.8c-1.3,0-2.6,0-3.8,0.2
			c-6.6,1.1-12.7,5.8-18.6,14.5C89.4,30.9,83.6,35.5,77.5,36.5 M72.4,32.6c-2.7,0.5-5.5,0.2-8.5-0.8c1.3,0,2.6,0,3.9-0.2
			c6.9-1.1,13.3-6.2,19.6-15.3C92.9,8.4,98.3,4,104.1,3c2.7-0.5,5.5-0.2,8.5,0.8c-1.3,0-2.6,0-3.8,0.2c-6.6,1.1-12.7,5.8-18.6,14.5
			C84.2,27,78.4,31.6,72.4,32.6"/>
	</g>
	<g>
		<path class="st0" d="M18.2,84.8l-3.6,2.1c-0.7-1.2-1.3-1.9-1.9-2.3S11.2,84,10.2,84c-1.2,0-2.3,0.3-3.1,1
			c-0.8,0.7-1.2,1.5-1.2,2.6c0,1.4,1.1,2.6,3.2,3.5l2.9,1.2c2.4,1,4.1,2.1,5.2,3.5c1.1,1.4,1.7,3.1,1.7,5.1c0,2.7-0.9,4.9-2.7,6.7
			c-1.8,1.8-4.1,2.7-6.8,2.7c-2.6,0-4.7-0.8-6.3-2.3c-1.6-1.5-2.7-3.6-3.1-6.4l4.5-1c0.2,1.7,0.6,2.9,1.1,3.6c0.9,1.3,2.2,1.9,4,1.9
			c1.4,0,2.5-0.5,3.4-1.4s1.4-2.1,1.4-3.5c0-0.6-0.1-1.1-0.2-1.6c-0.2-0.5-0.4-0.9-0.7-1.3c-0.3-0.4-0.8-0.8-1.3-1.1
			c-0.5-0.3-1.2-0.7-1.9-1L7.5,95c-4-1.7-6-4.2-6-7.5c0-2.2,0.8-4.1,2.5-5.5c1.7-1.5,3.8-2.2,6.3-2.2C13.6,79.8,16.3,81.5,18.2,84.8
			z"/>
		<path class="st0" d="M56.7,102.6H44.1l-3.3,7.1H36l14.5-31.2l14,31.2h-4.9L56.7,102.6z M54.9,98.5l-4.4-10l-4.6,10H54.9z"/>
		<path class="st0" d="M104.1,82v5.3c-2.6-2.1-5.2-3.2-8-3.2c-3,0-5.6,1.1-7.6,3.3c-2.1,2.2-3.1,4.8-3.1,7.9s1,5.7,3.1,7.8
			c2.1,2.1,4.6,3.2,7.7,3.2c1.6,0,2.9-0.3,4-0.8c0.6-0.3,1.2-0.6,1.9-1c0.7-0.4,1.3-1,2.1-1.6v5.4c-2.5,1.4-5.2,2.2-8,2.2
			c-4.2,0-7.8-1.5-10.8-4.4c-3-3-4.4-6.5-4.4-10.7c0-3.7,1.2-7.1,3.7-10c3-3.6,7-5.4,11.8-5.4C99,79.8,101.6,80.5,104.1,82z"/>
		<path class="st0" d="M146.8,82v5.3c-2.6-2.1-5.2-3.2-8-3.2c-3,0-5.6,1.1-7.6,3.3c-2.1,2.2-3.1,4.8-3.1,7.9s1,5.7,3.1,7.8
			c2.1,2.1,4.6,3.2,7.7,3.2c1.6,0,2.9-0.3,4-0.8c0.6-0.3,1.2-0.6,1.9-1s1.3-1,2.1-1.6v5.4c-2.5,1.4-5.2,2.2-8,2.2
			c-4.2,0-7.8-1.5-10.8-4.4c-3-3-4.4-6.5-4.4-10.7c0-3.7,1.2-7.1,3.7-10c3-3.6,7-5.4,11.8-5.4C141.8,79.8,144.3,80.5,146.8,82z"/>
		<path class="st0" d="M166.1,94.9c0-4.1,1.5-7.7,4.6-10.7c3-3,6.7-4.5,10.9-4.5s7.8,1.5,10.8,4.5s4.5,6.6,4.5,10.8
			c0,4.2-1.5,7.8-4.5,10.8s-6.7,4.4-11,4.4c-3.8,0-7.2-1.3-10.2-3.9C167.8,103.5,166.1,99.7,166.1,94.9z M170.6,95
			c0,3.2,1.1,5.9,3.3,8s4.7,3.1,7.5,3.1c3.1,0,5.7-1.1,7.8-3.2c2.1-2.2,3.2-4.8,3.2-7.9s-1-5.8-3.1-7.9s-4.7-3.2-7.7-3.2
			c-3.1,0-5.6,1.1-7.8,3.2C171.7,89.3,170.6,91.9,170.6,95z"/>
	</g>
	<g>
		<path class="st1" d="M26.7,131.7v-8.1l5.5,5.8v-5.2h1.1v8l-5.5-5.7v5.3h-1.1V131.7z"/>
		<path class="st1" d="M41.3,125.2h-3v1.8h2.9v1.1h-2.9v2.5h3v1.1h-4.2v-7.5h4.2V125.2z"/>
		<path class="st1" d="M45.2,124.1l2,5l2.1-5.4l2,5.4l2.1-5h1.1l-3.4,8l-1.9-5.3l-2,5.3l-3.2-8H45.2z"/>
		<path class="st1" d="M64,128.4l-2.5-4.3h1.3l1.7,3l1.7-3h1.3l-2.5,4.3v3.3h-1.1L64,128.4L64,128.4z"/>
		<path class="st1" d="M69.7,127.9c0-1.1,0.4-2,1.2-2.7c0.8-0.8,1.7-1.1,2.8-1.1c1.1,0,2,0.4,2.8,1.2s1.2,1.7,1.2,2.8
			c0,1.1-0.4,2-1.2,2.8c-0.8,0.8-1.7,1.1-2.8,1.1c-1,0-1.8-0.3-2.6-1C70.1,130.1,69.7,129.1,69.7,127.9z M70.9,127.9
			c0,0.8,0.3,1.5,0.8,2.1c0.6,0.5,1.2,0.8,1.9,0.8c0.8,0,1.5-0.3,2-0.8c0.5-0.6,0.8-1.2,0.8-2c0-0.8-0.3-1.5-0.8-2s-1.2-0.8-2-0.8
			s-1.4,0.3-2,0.8C71.1,126.4,70.9,127.1,70.9,127.9z"/>
		<path class="st1" d="M83.6,128.5l2.3,3.2h-1.4l-2.2-3.1h-0.2v3.1H81v-7.5h1.3c1,0,1.7,0.2,2.2,0.6c0.5,0.4,0.7,1,0.7,1.7
			c0,0.5-0.2,1-0.5,1.4C84.4,128.3,84.1,128.4,83.6,128.5z M82.2,127.6h0.3c1.1,0,1.6-0.4,1.6-1.2s-0.5-1.2-1.6-1.2h-0.4L82.2,127.6
			L82.2,127.6z"/>
		<path class="st1" d="M90.2,127.2l2.9-3h1.5l-3.4,3.4l3.4,4.1h-1.5l-2.7-3.4l-0.2,0.2v3.1h-1.1v-7.5h1.1
			C90.2,124.1,90.2,127.2,90.2,127.2z"/>
		<path class="st1" d="M104.1,124.1h1.1v9.4h-1.1V124.1z"/>
		<path class="st1" d="M116.6,124.1v6.5h2.2v1.1h-3.3v-7.5h1.1V124.1z"/>
		<path class="st1" d="M121.3,127.9c0-1.1,0.4-2,1.2-2.7c0.8-0.8,1.7-1.1,2.8-1.1s2,0.4,2.8,1.2s1.2,1.7,1.2,2.8
			c0,1.1-0.4,2-1.2,2.8s-1.7,1.1-2.8,1.1c-1,0-1.8-0.3-2.6-1C121.7,130.1,121.3,129.1,121.3,127.9z M122.4,127.9
			c0,0.8,0.3,1.5,0.8,2.1c0.6,0.5,1.2,0.8,1.9,0.8c0.8,0,1.5-0.3,2-0.8c0.5-0.6,0.8-1.2,0.8-2c0-0.8-0.3-1.5-0.8-2s-1.2-0.8-2-0.8
			s-1.4,0.3-2,0.8C122.7,126.4,122.4,127.1,122.4,127.9z"/>
		<path class="st1" d="M132.6,131.7v-8.1l5.5,5.8v-5.2h1.1v8l-5.5-5.7v5.3h-1.1V131.7z"/>
		<path class="st1" d="M143,131.7v-7.5h1.6c0.8,0,1.4,0.1,1.8,0.2c0.5,0.1,0.9,0.4,1.3,0.7c0.8,0.7,1.2,1.6,1.2,2.8
			c0,1.2-0.4,2.1-1.2,2.8c-0.4,0.4-0.8,0.6-1.3,0.7c-0.4,0.1-1,0.2-1.8,0.2H143V131.7z M144.1,130.6h0.5c0.5,0,0.9-0.1,1.3-0.2
			c0.3-0.1,0.6-0.3,0.9-0.5c0.6-0.5,0.8-1.2,0.8-2c0-0.8-0.3-1.5-0.8-2s-1.2-0.7-2.2-0.7h-0.5V130.6z"/>
		<path class="st1" d="M151.9,127.9c0-1.1,0.4-2,1.2-2.7c0.8-0.8,1.7-1.1,2.8-1.1s2,0.4,2.8,1.2s1.2,1.7,1.2,2.8
			c0,1.1-0.4,2-1.2,2.8s-1.7,1.1-2.8,1.1c-1,0-1.8-0.3-2.6-1C152.3,130.1,151.9,129.1,151.9,127.9z M153,127.9
			c0,0.8,0.3,1.5,0.8,2.1c0.6,0.5,1.2,0.8,1.9,0.8c0.8,0,1.5-0.3,2-0.8c0.5-0.6,0.8-1.2,0.8-2c0-0.8-0.3-1.5-0.8-2s-1.2-0.8-2-0.8
			s-1.4,0.3-2,0.8C153.3,126.4,153,127.1,153,127.9z"/>
		<path class="st1" d="M163.2,131.7v-8.1l5.5,5.8v-5.2h1.1v8l-5.5-5.7v5.3h-1.1V131.7z"/>
	</g>
</g>
</svg>
